<?xml version="1.0" encoding="UTF-8" standalone="no"?>
<!-- Created with Inkscape (http://www.inkscape.org/) -->

<svg
   xmlns:dc="http://purl.org/dc/elements/1.1/"
   xmlns:cc="http://creativecommons.org/ns#"
   xmlns:rdf="http://www.w3.org/1999/02/22-rdf-syntax-ns#"
   xmlns:svg="http://www.w3.org/2000/svg"
   xmlns="http://www.w3.org/2000/svg"
   xmlns:sodipodi="http://sodipodi.sourceforge.net/DTD/sodipodi-0.dtd"
   xmlns:inkscape="http://www.inkscape.org/namespaces/inkscape"
   width="162.82915mm"
   height="169.20122mm"
   viewBox="0 0 162.82915 169.20122"
   version="1.1"
   id="svg8"
   inkscape:version="0.92.1 r15371"
   sodipodi:docname="logo-white.svg">
  <defs
     id="defs2" />
  <sodipodi:namedview
     id="base"
     pagecolor="#ffffff"
     bordercolor="#666666"
     borderopacity="1.0"
     inkscape:pageopacity="0.0"
     inkscape:pageshadow="2"
     inkscape:zoom="0.35"
     inkscape:cx="399.13723"
     inkscape:cy="559.75033"
     inkscape:document-units="mm"
     inkscape:current-layer="layer1"
     showgrid="false"
     inkscape:window-width="1920"
     inkscape:window-height="1001"
     inkscape:window-x="-9"
     inkscape:window-y="-9"
     inkscape:window-maximized="1" />
  <metadata
     id="metadata5">
    <rdf:RDF>
      <cc:Work
         rdf:about="">
        <dc:format>image/svg+xml</dc:format>
        <dc:type
           rdf:resource="http://purl.org/dc/dcmitype/StillImage" />
        <dc:title></dc:title>
      </cc:Work>
    </rdf:RDF>
  </metadata>
  <g
     inkscape:label="Layer 1"
     inkscape:groupmode="layer"
     id="layer1"
     transform="translate(-0.22827501,-127.73272)">
    <g
       id="g26"
       transform="matrix(0.03527778,0,0,-0.03527778,-199.99829,365.07604)"
       style="fill:#ffffff;stroke:none">
      <path
         id="path20"
         d="m 9860,6711 c -14,-8 -231,-23 -517,-37 l -133,-7 v -26 c 0,-14 6,-64 14,-111 24,-150 51,-404 67,-635 18,-272 1,-1196 -23,-1220 -19,-20 -37,15 -77,146 -81,273 -227,633 -387,952 l -76,154 -77,-4 c -42,-2 -184,-8 -315,-13 -132,-6 -242,-13 -245,-15 -4,-5 11,-123 29,-215 10,-53 34,-250 49,-400 23,-237 32,-470 29,-730 -3,-236 -5,-275 -18,-275 -9,0 -48,65 -103,175 -114,225 -248,463 -349,617 l -80,123 -297,-6 c -163,-4 -297,-7 -298,-8 0,0 5,-35 12,-76 44,-262 71,-446 86,-595 6,-60 15,-144 20,-185 20,-161 30,-605 21,-890 -5,-157 -8,-286 -8,-286 1,-1 103,-4 229,-8 183,-6 228,-5 231,6 16,55 43,402 52,661 8,244 25,280 75,169 116,-258 195,-482 284,-803 l 16,-57 224,-7 c 123,-4 228,-4 234,-1 6,4 15,23 21,44 10,38 72,341 90,442 29,170 71,463 90,635 18,153 34,154 74,5 79,-293 155,-804 156,-1041 0,-92 1,-97 23,-102 12,-3 117,-9 233,-13 l 210,-7 12,29 c 33,88 133,404 166,525 125,466 192,788 241,1169 9,63 20,147 25,185 5,39 14,135 20,215 6,80 15,190 20,245 17,187 12,748 -10,1025 -11,140 -22,255 -23,256 -1,1 -9,-1 -17,-5 z"
         inkscape:connector-curvature="0"
         style="fill:#ffffff" />
      <path
         id="path22"
         d="m 6737,4840 c -53,-107 -97,-190 -98,-185 -7,58 32,209 78,298 8,16 12,31 10,34 -8,7 -82,-134 -125,-238 -194,-468 -201,-967 -22,-1485 36,-105 126,-294 191,-402 104,-173 223,-318 370,-452 239,-217 488,-344 814,-415 98,-22 156,-28 316,-32 173,-5 212,-3 330,16 239,40 380,81 572,167 487,217 839,570 1007,1011 125,329 159,675 100,1003 -20,110 -59,248 -80,280 -13,20 -13,13 5,-145 28,-247 13,-490 -40,-650 -12,-38 -28,-92 -35,-120 -16,-69 -31,-105 -41,-105 -12,0 -11,8 6,85 9,37 17,97 19,133 2,37 7,121 11,187 12,181 -19,412 -77,595 l -31,95 -38,-155 -38,-155 14,-110 c 39,-293 3,-548 -109,-769 -92,-182 -179,-301 -335,-456 -191,-190 -349,-297 -570,-384 -169,-67 -431,-117 -611,-116 -85,0 -307,31 -399,55 -261,67 -497,203 -703,404 -461,448 -605,1082 -382,1679 l 35,93 -16,197 c -9,108 -20,206 -25,217 -6,16 -27,-21 -103,-175 z"
         inkscape:connector-curvature="0"
         style="fill:#ffffff" />
      <path
         id="path24"
         d="m 6511,2695 c -105,-74 -124,-80 -146,-45 -12,19 -51,10 -97,-22 -26,-18 -100,-71 -165,-118 -65,-48 -180,-131 -257,-185 -76,-55 -143,-110 -149,-123 -13,-28 -1,-54 79,-162 81,-110 91,-120 120,-120 18,0 82,40 197,123 93,67 211,151 262,187 172,121 175,125 175,180 v 49 l 83,60 c 136,100 125,82 83,143 -20,29 -46,65 -59,80 l -22,26 z"
         inkscape:connector-curvature="0"
         style="fill:#ffffff" />
    </g>
    <path
       style="opacity:0;fill:#2683ea;fill-opacity:1;stroke-width:2.85714293"
       d="m 439.85151,482.42953 c -2.31308,-0.93334 -3.57606,-7.64891 -3.58458,-19.06014 -0.0251,-33.58714 -19.13045,-142.12957 -25.73585,-146.21194 -4.0508,-2.50355 -5.16731,1.82717 -9.98127,38.7154 -9.4269,72.23611 -19.89058,122.32991 -26.04586,124.69191 -2.24772,0.86254 -16.26762,0.65503 -31.15532,-0.46117 -20.34047,-1.52497 -27.06854,-3.02434 -27.06854,-6.03229 0,-6.89348 -24.53355,-78.79837 -33.9665,-99.55171 -6.01851,-13.24126 -9.95011,-18.85266 -11.8664,-16.93637 -1.57618,1.5762 -4.10193,23.98717 -5.61278,49.80217 -1.51084,25.815 -3.52379,51.7578 -4.47322,57.65066 l -1.72624,10.71428 -29.03457,-0.003 -29.03458,-0.003 -0.15898,-73.56848 c -0.15555,-71.98072 -3.51595,-114.07292 -13.85225,-173.51274 l -3.59909,-20.6969 25.67266,-1.82229 c 52.00586,-3.69148 48.83237,-4.59243 63.45734,18.01546 7.05814,10.91077 21.37806,35.66077 31.82205,55 10.44399,19.33924 20.99473,38.37653 23.44609,42.3051 l 4.45703,7.14285 1.89667,-8.57142 c 4.89765,-22.13338 1.04319,-108.95412 -7.71443,-173.7656 -2.50941,-18.57108 -4.11376,-34.2144 -3.56523,-34.76293 0.54853,-0.54853 19.03689,-1.91304 41.08524,-3.03224 l 40.08791,-2.03491 18.93054,39.65498 c 16.85599,35.30927 41.37467,97.79498 46.70128,119.01793 1.07397,4.27895 3.61237,7.77991 5.64091,7.77991 8.97697,0 9.06986,-163.13158 0.12943,-227.142858 -2.41431,-17.285715 -4.40031,-32.867602 -4.41337,-34.626418 -0.0143,-2.0958069 14.49949,-4.1187775 42.11911,-5.8701649 23.17858,-1.4697754 42.57503,-2.3842926 43.10323,-2.0322603 2.58543,1.7231149 5.98977,62.4687432 6.08057,108.4985212 0.21743,110.22476 -17.54922,223.35406 -53.15774,338.48352 l -10.55251,34.11823 -27.37966,-0.22543 c -15.05881,-0.1242 -28.9868,-0.8742 -30.95109,-1.6668 z"
       id="path48"
       inkscape:connector-curvature="0"
       transform="matrix(0.26458333,0,0,0.26458333,0.22827501,127.73272)" />
    <path
       style="opacity:0;fill:#2683ea;fill-opacity:1;stroke-width:2.85714293"
       d="m 439.85151,482.42953 c -2.31308,-0.93334 -3.57606,-7.64891 -3.58458,-19.06014 -0.0251,-33.58714 -19.13045,-142.12957 -25.73585,-146.21194 -4.0508,-2.50355 -5.16731,1.82717 -9.98127,38.7154 -9.4269,72.23611 -19.89058,122.32991 -26.04586,124.69191 -2.24772,0.86254 -16.26762,0.65503 -31.15532,-0.46117 -20.34047,-1.52497 -27.06854,-3.02434 -27.06854,-6.03229 0,-6.89348 -24.53355,-78.79837 -33.9665,-99.55171 -6.01851,-13.24126 -9.95011,-18.85266 -11.8664,-16.93637 -1.57618,1.5762 -4.10193,23.98717 -5.61278,49.80217 -1.51084,25.815 -3.52379,51.7578 -4.47322,57.65066 l -1.72624,10.71428 -29.03457,-0.003 -29.03458,-0.003 -0.15898,-73.56848 c -0.15555,-71.98072 -3.51595,-114.07292 -13.85225,-173.51274 l -3.59909,-20.6969 25.67266,-1.82229 c 52.00586,-3.69148 48.83237,-4.59243 63.45734,18.01546 7.05814,10.91077 21.37806,35.66077 31.82205,55 10.44399,19.33924 20.99473,38.37653 23.44609,42.3051 l 4.45703,7.14285 1.89667,-8.57142 c 4.89765,-22.13338 1.04319,-108.95412 -7.71443,-173.7656 -2.50941,-18.57108 -4.11376,-34.2144 -3.56523,-34.76293 0.54853,-0.54853 19.03689,-1.91304 41.08524,-3.03224 l 40.08791,-2.03491 18.93054,39.65498 c 16.85599,35.30927 41.37467,97.79498 46.70128,119.01793 1.07397,4.27895 3.61237,7.77991 5.64091,7.77991 8.97697,0 9.06986,-163.13158 0.12943,-227.142858 -2.41431,-17.285715 -4.40031,-32.867602 -4.41337,-34.626418 -0.0143,-2.0958069 14.49949,-4.1187775 42.11911,-5.8701649 23.17858,-1.4697754 42.57503,-2.3842926 43.10323,-2.0322603 2.58543,1.7231149 5.98977,62.4687432 6.08057,108.4985212 0.21743,110.22476 -17.54922,223.35406 -53.15774,338.48352 l -10.55251,34.11823 -27.37966,-0.22543 c -15.05881,-0.1242 -28.9868,-0.8742 -30.95109,-1.6668 z"
       id="path50"
       inkscape:connector-curvature="0"
       transform="matrix(0.26458333,0,0,0.26458333,0.22827501,127.73272)" />
    <path
       style="opacity:0;fill:#2683ea;fill-opacity:1;stroke-width:2.85714293"
       d="m 439.85151,482.42953 c -2.31308,-0.93334 -3.57606,-7.64891 -3.58458,-19.06014 -0.0251,-33.58714 -19.13045,-142.12957 -25.73585,-146.21194 -4.0508,-2.50355 -5.16731,1.82717 -9.98127,38.7154 -9.4269,72.23611 -19.89058,122.32991 -26.04586,124.69191 -2.24772,0.86254 -16.26762,0.65503 -31.15532,-0.46117 -20.34047,-1.52497 -27.06854,-3.02434 -27.06854,-6.03229 0,-6.89348 -24.53355,-78.79837 -33.9665,-99.55171 -6.01851,-13.24126 -9.95011,-18.85266 -11.8664,-16.93637 -1.57618,1.5762 -4.10193,23.98717 -5.61278,49.80217 -1.51084,25.815 -3.52379,51.7578 -4.47322,57.65066 l -1.72624,10.71428 -29.03457,-0.003 -29.03458,-0.003 -0.15898,-73.56848 c -0.15555,-71.98072 -3.51595,-114.07292 -13.85225,-173.51274 l -3.59909,-20.6969 25.67266,-1.82229 c 52.00586,-3.69148 48.83237,-4.59243 63.45734,18.01546 7.05814,10.91077 21.37806,35.66077 31.82205,55 10.44399,19.33924 20.99473,38.37653 23.44609,42.3051 l 4.45703,7.14285 1.89667,-8.57142 c 4.89765,-22.13338 1.04319,-108.95412 -7.71443,-173.7656 -2.50941,-18.57108 -4.11376,-34.2144 -3.56523,-34.76293 0.54853,-0.54853 19.03689,-1.91304 41.08524,-3.03224 l 40.08791,-2.03491 18.93054,39.65498 c 16.85599,35.30927 41.37467,97.79498 46.70128,119.01793 1.07397,4.27895 3.61237,7.77991 5.64091,7.77991 8.97697,0 9.06986,-163.13158 0.12943,-227.142858 -2.41431,-17.285715 -4.40031,-32.867602 -4.41337,-34.626418 -0.0143,-2.0958069 14.49949,-4.1187775 42.11911,-5.8701649 23.17858,-1.4697754 42.57503,-2.3842926 43.10323,-2.0322603 2.58543,1.7231149 5.98977,62.4687432 6.08057,108.4985212 0.21743,110.22476 -17.54922,223.35406 -53.15774,338.48352 l -10.55251,34.11823 -27.37966,-0.22543 c -15.05881,-0.1242 -28.9868,-0.8742 -30.95109,-1.6668 z"
       id="path52"
       inkscape:connector-curvature="0"
       transform="matrix(0.26458333,0,0,0.26458333,0.22827501,127.73272)" />
    <path
       style="opacity:0;fill:#2683ea;fill-opacity:1;stroke-width:2.85714293"
       d="M 317.62867,630.11162 C 260.47049,621.9889 206.86585,590.60422 168.70439,542.9187 124.35148,487.49653 102.17544,419.40062 105.64749,349.28999 c 2.19817,-44.38728 14.55349,-88.54448 21.58957,-77.15987 1.34751,2.18032 6.11022,-4.53346 12.78415,-18.02122 5.85011,-11.82286 11.70762,-20.83416 13.0167,-20.0251 1.30908,0.80905 3.16048,11.59019 4.11422,23.95809 1.49,19.32192 0.73265,25.44706 -5.38061,43.51631 -12.83311,37.93143 -13.80728,86.04733 -2.53206,125.06246 9.55961,33.07867 26.31764,60.07255 55.48891,89.38167 23.36509,23.47554 31.14929,29.30086 54.40886,40.71697 46.12562,22.63912 96.77262,28.44786 145.71428,16.71203 46.25966,-11.09268 78.23603,-29.92757 111.90152,-65.91283 23.661,-25.29137 36.89431,-45.85117 47.58843,-73.93517 6.81245,-17.89032 7.34594,-22.76007 7.49377,-68.40418 0.15571,-48.08687 2.05614,-58.72246 9.65374,-54.02688 8.28229,5.11872 12.18483,105.61041 4.77063,122.84506 -1.68349,3.91335 -1.27394,5.04162 1.495,4.11864 4.89131,-1.63044 13.95337,-32.68935 16.52914,-56.65135 1.4744,-13.71592 3.11686,-18.57143 6.28206,-18.57143 10.23263,0 5.08006,57.95876 -8.89009,100 -12.1382,36.52826 -27.96551,61.62343 -56.76225,90 -35.53617,35.01766 -79.70109,59.36734 -130.06195,71.70771 -26.36265,6.45989 -72.24372,9.06049 -97.22284,5.51072 z"
       id="path68"
       inkscape:connector-curvature="0"
       transform="matrix(0.26458333,0,0,0.26458333,0.22827501,127.73272)" />
    <path
       style="opacity:0;fill:#2683ea;fill-opacity:1;stroke-width:2.85714293"
       d="M 19.561693,628.65439 C 14.672723,623.08617 8.752956,614.81805 6.4066546,610.2808 c -4.9321601,-9.53774 -8.8135302,-5.73924 46.4267704,-45.43554 26.485878,-19.03305 33.653123,-22.91132 40,-21.6444 5.6936,1.13651 10.897985,-0.75084 19.738465,-7.15809 l 12.00609,-8.70156 5.85105,8.21705 c 3.21808,4.51937 5.85106,9.45085 5.85106,10.95884 0,1.50799 -5.06766,6.25369 -11.26147,10.546 -7.10769,4.92563 -11.93303,10.86179 -13.08216,16.09376 -1.42572,6.49127 -9.05469,13.4643 -35.167106,32.14345 -52.474881,37.53716 -46.791774,35.21712 -57.207661,23.35408 z"
       id="path70"
       inkscape:connector-curvature="0"
       transform="matrix(0.26458333,0,0,0.26458333,0.22827501,127.73272)" />
    <path
       style="opacity:0;fill:#2683ea;fill-opacity:1;stroke-width:2.85714293"
       d="m 447.37459,482.31202 c -7.3038,-1.12686 -7.52328,-1.79509 -9.47824,-28.85763 -3.78185,-52.35212 -20.71028,-137.70406 -27.31177,-137.70406 -2.93296,0 -2.84398,-0.47503 -12.84386,68.57143 -3.98278,27.5 -9.50515,59.64286 -12.27194,71.42857 l -5.03052,21.42857 -30.11389,0.80552 -30.11389,0.80548 -7.86692,-26.51977 c -8.43295,-28.42791 -32.19037,-90.50154 -36.32132,-94.90074 -4.885,-5.20223 -6.54008,1.75634 -8.63177,36.29123 -1.16414,19.22077 -2.96993,45.554 -4.01285,58.51828 l -1.89621,23.57143 h -29.41696 -29.41696 l -1.53166,-87.85714 c -1.30071,-74.61029 -2.61211,-94.74414 -8.69758,-133.53374 -3.94126,-25.12212 -6.50731,-46.33641 -5.70232,-47.14285 0.80499,-0.80645 17.89466,-1.91225 37.97704,-2.45734 l 36.51342,-0.99107 13.96542,22.0033 c 7.68098,12.10182 23.0054,38.81113 34.05426,59.35401 11.04887,20.54292 21.83612,37.93315 23.97167,38.645 5.87098,1.957 2.1276,-129.09113 -5.04433,-176.5916 -2.9658,-19.64285 -5.0578,-36.11421 -4.64888,-36.60301 0.40892,-0.4888 19.26988,-1.63938 41.91324,-2.55683 l 41.16975,-1.66809 17.52567,38.46355 c 20.26903,44.48438 31.10416,71.44062 42.00698,104.50724 12.99006,39.39686 14.75977,34.63346 17.24949,-46.42857 1.785,-58.118 -0.27,-102.964595 -7.56186,-165.030398 -1.80206,-15.338147 -2.741,-28.4229803 -2.08657,-29.0774083 1.43794,-1.4379466 83.5164,-7.3156035 84.76217,-6.0698383 0.4818,0.4817951 2.30977,28.3492116 4.0622,61.9275916 C 568.97803,187.8968 551.53814,318.2963 511.86214,443.60747 l -12.89097,40.71429 -22.05983,-0.42809 c -12.1329,-0.23542 -25.42444,-0.9472 -29.53675,-1.58165 z"
       id="path72"
       inkscape:connector-curvature="0"
       transform="matrix(0.26458333,0,0,0.26458333,0.22827501,127.73272)" />
    <path
       style="opacity:0;fill:#2683ea;fill-opacity:1;stroke-width:2.85714293"
       d="m 447.37459,482.31202 c -7.3038,-1.12686 -7.52328,-1.79509 -9.47824,-28.85763 -3.78185,-52.35212 -20.71028,-137.70406 -27.31177,-137.70406 -2.93296,0 -2.84398,-0.47503 -12.84386,68.57143 -3.98278,27.5 -9.50515,59.64286 -12.27194,71.42857 l -5.03052,21.42857 -30.11389,0.80552 -30.11389,0.80548 -7.86692,-26.51977 c -8.43295,-28.42791 -32.19037,-90.50154 -36.32132,-94.90074 -4.885,-5.20223 -6.54008,1.75634 -8.63177,36.29123 -1.16414,19.22077 -2.96993,45.554 -4.01285,58.51828 l -1.89621,23.57143 h -29.41696 -29.41696 l -1.53166,-87.85714 c -1.30071,-74.61029 -2.61211,-94.74414 -8.69758,-133.53374 -3.94126,-25.12212 -6.50731,-46.33641 -5.70232,-47.14285 0.80499,-0.80645 17.89466,-1.91225 37.97704,-2.45734 l 36.51342,-0.99107 13.96542,22.0033 c 7.68098,12.10182 23.0054,38.81113 34.05426,59.35401 11.04887,20.54292 21.83612,37.93315 23.97167,38.645 5.87098,1.957 2.1276,-129.09113 -5.04433,-176.5916 -2.9658,-19.64285 -5.0578,-36.11421 -4.64888,-36.60301 0.40892,-0.4888 19.26988,-1.63938 41.91324,-2.55683 l 41.16975,-1.66809 17.52567,38.46355 c 20.26903,44.48438 31.10416,71.44062 42.00698,104.50724 12.99006,39.39686 14.75977,34.63346 17.24949,-46.42857 1.785,-58.118 -0.27,-102.964595 -7.56186,-165.030398 -1.80206,-15.338147 -2.741,-28.4229803 -2.08657,-29.0774083 1.43794,-1.4379466 83.5164,-7.3156035 84.76217,-6.0698383 0.4818,0.4817951 2.30977,28.3492116 4.0622,61.9275916 C 568.97803,187.8968 551.53814,318.2963 511.86214,443.60747 l -12.89097,40.71429 -22.05983,-0.42809 c -12.1329,-0.23542 -25.42444,-0.9472 -29.53675,-1.58165 z"
       id="path74"
       inkscape:connector-curvature="0"
       transform="matrix(0.26458333,0,0,0.26458333,0.22827501,127.73272)" />
    <path
       style="opacity:0;fill:#2683ea;fill-opacity:1;stroke-width:2.85714293"
       d="m 447.37459,482.31202 c -7.3038,-1.12686 -7.52328,-1.79509 -9.47824,-28.85763 -3.78185,-52.35212 -20.71028,-137.70406 -27.31177,-137.70406 -2.93296,0 -2.84398,-0.47503 -12.84386,68.57143 -3.98278,27.5 -9.50515,59.64286 -12.27194,71.42857 l -5.03052,21.42857 -30.11389,0.80552 -30.11389,0.80548 -7.86692,-26.51977 c -8.43295,-28.42791 -32.19037,-90.50154 -36.32132,-94.90074 -4.885,-5.20223 -6.54008,1.75634 -8.63177,36.29123 -1.16414,19.22077 -2.96993,45.554 -4.01285,58.51828 l -1.89621,23.57143 h -29.41696 -29.41696 l -1.53166,-87.85714 c -1.30071,-74.61029 -2.61211,-94.74414 -8.69758,-133.53374 -3.94126,-25.12212 -6.50731,-46.33641 -5.70232,-47.14285 0.80499,-0.80645 17.89466,-1.91225 37.97704,-2.45734 l 36.51342,-0.99107 13.96542,22.0033 c 7.68098,12.10182 23.0054,38.81113 34.05426,59.35401 11.04887,20.54292 21.83612,37.93315 23.97167,38.645 5.87098,1.957 2.1276,-129.09113 -5.04433,-176.5916 -2.9658,-19.64285 -5.0578,-36.11421 -4.64888,-36.60301 0.40892,-0.4888 19.26988,-1.63938 41.91324,-2.55683 l 41.16975,-1.66809 17.52567,38.46355 c 20.26903,44.48438 31.10416,71.44062 42.00698,104.50724 12.99006,39.39686 14.75977,34.63346 17.24949,-46.42857 1.785,-58.118 -0.27,-102.964595 -7.56186,-165.030398 -1.80206,-15.338147 -2.741,-28.4229803 -2.08657,-29.0774083 1.43794,-1.4379466 83.5164,-7.3156035 84.76217,-6.0698383 0.4818,0.4817951 2.30977,28.3492116 4.0622,61.9275916 C 568.97803,187.8968 551.53814,318.2963 511.86214,443.60747 l -12.89097,40.71429 -22.05983,-0.42809 c -12.1329,-0.23542 -25.42444,-0.9472 -29.53675,-1.58165 z"
       id="path76"
       inkscape:connector-curvature="0"
       transform="matrix(0.26458333,0,0,0.26458333,0.22827501,127.73272)" />
    <path
       style="opacity:0;fill:#2683ea;fill-opacity:1;stroke-width:2.85714293"
       d="m 447.37459,482.31202 c -7.3038,-1.12686 -7.52328,-1.79509 -9.47824,-28.85763 -3.78185,-52.35212 -20.71028,-137.70406 -27.31177,-137.70406 -2.93296,0 -2.84398,-0.47503 -12.84386,68.57143 -3.98278,27.5 -9.50515,59.64286 -12.27194,71.42857 l -5.03052,21.42857 -30.11389,0.80552 -30.11389,0.80548 -7.86692,-26.51977 c -8.43295,-28.42791 -32.19037,-90.50154 -36.32132,-94.90074 -4.885,-5.20223 -6.54008,1.75634 -8.63177,36.29123 -1.16414,19.22077 -2.96993,45.554 -4.01285,58.51828 l -1.89621,23.57143 h -29.41696 -29.41696 l -1.53166,-87.85714 c -1.30071,-74.61029 -2.61211,-94.74414 -8.69758,-133.53374 -3.94126,-25.12212 -6.50731,-46.33641 -5.70232,-47.14285 0.80499,-0.80645 17.89466,-1.91225 37.97704,-2.45734 l 36.51342,-0.99107 13.96542,22.0033 c 7.68098,12.10182 23.0054,38.81113 34.05426,59.35401 11.04887,20.54292 21.83612,37.93315 23.97167,38.645 5.87098,1.957 2.1276,-129.09113 -5.04433,-176.5916 -2.9658,-19.64285 -5.0578,-36.11421 -4.64888,-36.60301 0.40892,-0.4888 19.26988,-1.63938 41.91324,-2.55683 l 41.16975,-1.66809 17.52567,38.46355 c 20.26903,44.48438 31.10416,71.44062 42.00698,104.50724 12.99006,39.39686 14.75977,34.63346 17.24949,-46.42857 1.785,-58.118 -0.27,-102.964595 -7.56186,-165.030398 -1.80206,-15.338147 -2.741,-28.4229803 -2.08657,-29.0774083 1.43794,-1.4379466 83.5164,-7.3156035 84.76217,-6.0698383 0.4818,0.4817951 2.30977,28.3492116 4.0622,61.9275916 C 568.97803,187.8968 551.53814,318.2963 511.86214,443.60747 l -12.89097,40.71429 -22.05983,-0.42809 c -12.1329,-0.23542 -25.42444,-0.9472 -29.53675,-1.58165 z"
       id="path78"
       inkscape:connector-curvature="0"
       transform="matrix(0.26458333,0,0,0.26458333,0.22827501,127.73272)" />
    <path
       style="opacity:0;fill:#2683ea;fill-opacity:1;stroke-width:2.85714293"
       d="m 447.37459,482.31202 c -7.3038,-1.12686 -7.52328,-1.79509 -9.47824,-28.85763 -3.78185,-52.35212 -20.71028,-137.70406 -27.31177,-137.70406 -2.93296,0 -2.84398,-0.47503 -12.84386,68.57143 -3.98278,27.5 -9.50515,59.64286 -12.27194,71.42857 l -5.03052,21.42857 -30.11389,0.80552 -30.11389,0.80548 -7.86692,-26.51977 c -8.43295,-28.42791 -32.19037,-90.50154 -36.32132,-94.90074 -4.885,-5.20223 -6.54008,1.75634 -8.63177,36.29123 -1.16414,19.22077 -2.96993,45.554 -4.01285,58.51828 l -1.89621,23.57143 h -29.41696 -29.41696 l -1.53166,-87.85714 c -1.30071,-74.61029 -2.61211,-94.74414 -8.69758,-133.53374 -3.94126,-25.12212 -6.50731,-46.33641 -5.70232,-47.14285 0.80499,-0.80645 17.89466,-1.91225 37.97704,-2.45734 l 36.51342,-0.99107 13.96542,22.0033 c 7.68098,12.10182 23.0054,38.81113 34.05426,59.35401 11.04887,20.54292 21.83612,37.93315 23.97167,38.645 5.87098,1.957 2.1276,-129.09113 -5.04433,-176.5916 -2.9658,-19.64285 -5.0578,-36.11421 -4.64888,-36.60301 0.40892,-0.4888 19.26988,-1.63938 41.91324,-2.55683 l 41.16975,-1.66809 17.52567,38.46355 c 20.26903,44.48438 31.10416,71.44062 42.00698,104.50724 12.99006,39.39686 14.75977,34.63346 17.24949,-46.42857 1.785,-58.118 -0.27,-102.964595 -7.56186,-165.030398 -1.80206,-15.338147 -2.741,-28.4229803 -2.08657,-29.0774083 1.43794,-1.4379466 83.5164,-7.3156035 84.76217,-6.0698383 0.4818,0.4817951 2.30977,28.3492116 4.0622,61.9275916 C 568.97803,187.8968 551.53814,318.2963 511.86214,443.60747 l -12.89097,40.71429 -22.05983,-0.42809 c -12.1329,-0.23542 -25.42444,-0.9472 -29.53675,-1.58165 z"
       id="path80"
       inkscape:connector-curvature="0"
       transform="matrix(0.26458333,0,0,0.26458333,0.22827501,127.73272)" />
    <path
       style="opacity:0;fill:#2683ea;fill-opacity:1;stroke-width:2.85714293"
       d="m 447.37459,482.31202 c -7.3038,-1.12686 -7.52328,-1.79509 -9.47824,-28.85763 -3.78185,-52.35212 -20.71028,-137.70406 -27.31177,-137.70406 -2.93296,0 -2.84398,-0.47503 -12.84386,68.57143 -3.98278,27.5 -9.50515,59.64286 -12.27194,71.42857 l -5.03052,21.42857 -30.11389,0.80552 -30.11389,0.80548 -7.86692,-26.51977 c -8.43295,-28.42791 -32.19037,-90.50154 -36.32132,-94.90074 -4.885,-5.20223 -6.54008,1.75634 -8.63177,36.29123 -1.16414,19.22077 -2.96993,45.554 -4.01285,58.51828 l -1.89621,23.57143 h -29.41696 -29.41696 l -1.53166,-87.85714 c -1.30071,-74.61029 -2.61211,-94.74414 -8.69758,-133.53374 -3.94126,-25.12212 -6.50731,-46.33641 -5.70232,-47.14285 0.80499,-0.80645 17.89466,-1.91225 37.97704,-2.45734 l 36.51342,-0.99107 13.96542,22.0033 c 7.68098,12.10182 23.0054,38.81113 34.05426,59.35401 11.04887,20.54292 21.83612,37.93315 23.97167,38.645 5.87098,1.957 2.1276,-129.09113 -5.04433,-176.5916 -2.9658,-19.64285 -5.0578,-36.11421 -4.64888,-36.60301 0.40892,-0.4888 19.26988,-1.63938 41.91324,-2.55683 l 41.16975,-1.66809 17.52567,38.46355 c 20.26903,44.48438 31.10416,71.44062 42.00698,104.50724 12.99006,39.39686 14.75977,34.63346 17.24949,-46.42857 1.785,-58.118 -0.27,-102.964595 -7.56186,-165.030398 -1.80206,-15.338147 -2.741,-28.4229803 -2.08657,-29.0774083 1.43794,-1.4379466 83.5164,-7.3156035 84.76217,-6.0698383 0.4818,0.4817951 2.30977,28.3492116 4.0622,61.9275916 C 568.97803,187.8968 551.53814,318.2963 511.86214,443.60747 l -12.89097,40.71429 -22.05983,-0.42809 c -12.1329,-0.23542 -25.42444,-0.9472 -29.53675,-1.58165 z"
       id="path82"
       inkscape:connector-curvature="0"
       transform="matrix(0.26458333,0,0,0.26458333,0.22827501,127.73272)" />
    <path
       style="opacity:0;fill:#2683ea;fill-opacity:1;stroke-width:2.85714293"
       d="m 447.37459,482.31202 c -7.3038,-1.12686 -7.52328,-1.79509 -9.47824,-28.85763 -2.42237,-33.53286 -14.4966,-106.88234 -18.97013,-115.2412 -1.775,-3.3166 -3.56719,-9.1268 -3.98265,-12.91152 -0.81025,-7.38122 -3.44846,-11.43302 -5.8685,-9.013 -0.8199,0.81992 -5.31931,27.71278 -9.9987,59.76192 -4.67939,32.04914 -10.78726,67.91403 -13.57304,79.69974 l -5.06507,21.42857 -30.11389,0.80552 -30.11389,0.80548 -7.86692,-26.51977 c -8.43295,-28.42791 -32.19037,-90.50154 -36.32132,-94.90074 -4.885,-5.20223 -6.54008,1.75634 -8.63177,36.29123 -1.16414,19.22077 -2.96993,45.554 -4.01285,58.51828 l -1.89621,23.57143 h -29.41696 -29.41696 l -1.53166,-87.85714 c -1.30071,-74.61029 -2.61211,-94.74414 -8.69758,-133.53374 -3.94126,-25.12212 -6.50731,-46.33641 -5.70232,-47.14285 0.80499,-0.80645 17.89466,-1.91225 37.97704,-2.45734 l 36.51342,-0.99107 13.96542,22.0033 c 7.68098,12.10182 23.0054,38.81113 34.05426,59.35401 11.04887,20.54292 21.83612,37.93315 23.97167,38.645 5.87098,1.957 2.1276,-129.09113 -5.04433,-176.5916 -2.9658,-19.64285 -5.0578,-36.11421 -4.64888,-36.60301 0.40892,-0.4888 19.26988,-1.63938 41.91324,-2.55683 l 41.16975,-1.66809 17.52567,38.46355 c 20.26903,44.48438 31.10416,71.44062 42.00698,104.50724 12.99006,39.39686 14.75977,34.63346 17.24949,-46.42857 1.785,-58.118 -0.27,-102.964595 -7.56186,-165.030398 -1.80206,-15.338147 -2.741,-28.4229803 -2.08657,-29.0774083 1.43794,-1.4379466 83.5164,-7.3156035 84.76217,-6.0698383 0.4818,0.4817951 2.30977,28.3492116 4.0622,61.9275916 C 568.97803,187.8968 551.53814,318.2963 511.86214,443.60747 l -12.89097,40.71429 -22.05983,-0.42809 c -12.1329,-0.23542 -25.42444,-0.9472 -29.53675,-1.58165 z"
       id="path84"
       inkscape:connector-curvature="0"
       transform="matrix(0.26458333,0,0,0.26458333,0.22827501,127.73272)" />
    <path
       transform="matrix(0.26458333,0,0,0.26458333,0.22827501,127.73272)"
       inkscape:connector-curvature="0"
       id="path86"
       d="m 447.37459,482.31202 c -7.3038,-1.12686 -7.52328,-1.79509 -9.47824,-28.85763 -2.42237,-33.53286 -14.4966,-106.88234 -18.97013,-115.2412 -1.775,-3.3166 -3.56719,-9.1268 -3.98265,-12.91152 -0.81025,-7.38122 -3.44846,-11.43302 -5.8685,-9.013 -0.8199,0.81992 -5.31931,27.71278 -9.9987,59.76192 -4.67939,32.04914 -10.78726,67.91403 -13.57304,79.69974 l -5.06507,21.42857 -30.11389,0.80552 -30.11389,0.80548 -7.86692,-26.51977 c -8.43295,-28.42791 -32.19037,-90.50154 -36.32132,-94.90074 -4.885,-5.20223 -6.54008,1.75634 -8.63177,36.29123 -1.16414,19.22077 -2.96993,45.554 -4.01285,58.51828 l -1.89621,23.57143 h -29.41696 -29.41696 l -1.53166,-87.85714 c -1.30071,-74.61029 -2.61211,-94.74414 -8.69758,-133.53374 -3.94126,-25.12212 -6.50731,-46.33641 -5.70232,-47.14285 0.80499,-0.80645 17.89466,-1.91225 37.97704,-2.45734 l 36.51342,-0.99107 13.96542,22.0033 c 7.68098,12.10182 23.0054,38.81113 34.05426,59.35401 11.04887,20.54292 21.83612,37.93315 23.97167,38.645 5.87098,1.957 2.1276,-129.09113 -5.04433,-176.5916 -2.9658,-19.64285 -5.0578,-36.11421 -4.64888,-36.60301 0.40892,-0.4888 19.26988,-1.63938 41.91324,-2.55683 l 41.16975,-1.66809 17.52567,38.46355 c 20.26903,44.48438 31.10416,71.44062 42.00698,104.50724 12.99006,39.39686 14.75977,34.63346 17.24949,-46.42857 1.785,-58.118 -0.27,-102.964595 -7.56186,-165.030398 -1.80206,-15.338147 -2.741,-28.4229803 -2.08657,-29.0774083 1.43794,-1.4379466 83.5164,-7.3156035 84.76217,-6.0698383 0.4818,0.4817951 2.30977,28.3492116 4.0622,61.9275916 C 568.97803,187.8968 551.53814,318.2963 511.86214,443.60747 l -12.89097,40.71429 -22.05983,-0.42809 c -12.1329,-0.23542 -25.42444,-0.9472 -29.53675,-1.58165 z"
       style="opacity:0;fill:#2683ea;fill-opacity:1;stroke-width:2.85714293" />
  </g>
</svg>
